<?xml version="1.0" encoding="utf-8"?>
<!-- Generator: Adobe Illustrator 25.0.1, SVG Export Plug-In . SVG Version: 6.00 Build 0)  -->
<svg version="1.1" id="Lager_1" xmlns="http://www.w3.org/2000/svg" xmlns:xlink="http://www.w3.org/1999/xlink" x="0px" y="0px"
	 viewBox="0 0 800 534" style="enable-background:new 0 0 800 534;" xml:space="preserve">
<style type="text/css">
	.st0{fill:#404040;}
	.st1{fill:#FFFFFF;stroke:#404040;stroke-width:4;stroke-linecap:round;stroke-linejoin:round;stroke-miterlimit:10;}
	.st2{fill:none;stroke:#CCCCCC;stroke-width:4;stroke-linecap:round;stroke-linejoin:round;stroke-miterlimit:10;}
	.st3{fill:none;stroke:#404040;stroke-width:4;stroke-miterlimit:10;}
	.st4{fill:#4ED1A1;stroke:#404040;stroke-width:4;stroke-miterlimit:10;}
	.st5{fill:#B3E3FF;stroke:#404040;stroke-width:4;stroke-linejoin:round;stroke-miterlimit:10;}
	.st6{fill:#FFFFFF;stroke:#404040;stroke-width:4;stroke-miterlimit:10;}
	.st7{fill:#FFFFFF;stroke:#CCCCCC;stroke-width:4;stroke-linecap:round;stroke-linejoin:round;stroke-miterlimit:10;}
	.st8{fill:#4ED1A1;stroke:#404040;stroke-width:4;stroke-linecap:round;stroke-linejoin:round;stroke-miterlimit:10;}
	.st9{fill:none;stroke:#404040;stroke-width:4;stroke-linecap:round;stroke-linejoin:round;stroke-miterlimit:10;}
	.st10{fill:#999999;}
</style>
<path class="st0" d="M350.8,515.3c2,0,3.2,1.2,3.2,2.9c0,1.1-0.7,2-1.6,2.3c1.2,0.3,1.9,1.4,1.9,2.6c0,1.7-1.3,2.9-3.3,2.9h-3.7
	v-10.6h3.5V515.3z M350.6,520c1.2,0,1.9-0.7,1.9-1.7s-0.7-1.7-1.9-1.7h-1.8v3.4H350.6z M350.8,524.7c1.2,0,2-0.7,2-1.7
	s-0.6-1.7-1.9-1.7h-2.1v3.4H350.8z M360.9,520.2h-0.6c-1.2,0-2,0.6-2,2.2v3.6h-1.4v-7.2h1.4v1.3c0.5-1.1,1.4-1.4,2.2-1.4h0.5v1.5
	L360.9,520.2z M364.9,521.8l1.9-0.3c0.4-0.1,0.6-0.3,0.6-0.5c0-0.7-0.5-1.3-1.6-1.3c-1,0-1.5,0.6-1.6,1.5l-1.4-0.3
	c0.2-1.4,1.4-2.3,3-2.3c2.2,0,3,1.2,3,2.6v3.6c0,0.6,0.1,1,0.1,1.2h-1.4c0-0.2-0.1-0.5-0.1-1c-0.3,0.5-1,1.2-2.3,1.2
	c-1.5,0-2.4-1-2.4-2.2C362.7,522.7,363.6,522,364.9,521.8L364.9,521.8z M367.4,522.9v-0.3l-2.2,0.3c-0.6,0.1-1.1,0.4-1.1,1.1
	c0,0.5,0.4,1,1.2,1C366.5,525,367.4,524.4,367.4,522.9z M373.1,525.9h-1.4v-7.2h1.4v1c0.5-0.9,1.4-1.2,2.2-1.2
	c1.7,0,2.6,1.2,2.6,2.9v4.6h-1.4v-4.3c0-1-0.4-1.8-1.7-1.8c-1.1,0-1.7,0.9-1.7,2V525.9z M386,524.9c-0.3,0.7-1.1,1.3-2.2,1.3
	c-2.1,0-3.4-1.7-3.4-3.8c0-2,1.4-3.8,3.4-3.8c1.3,0,2,0.6,2.2,1.2v-4.7h1.4v9.5c0,0.7,0.1,1.2,0.1,1.3H386c0-0.2-0.1-0.5-0.1-1H386z
	 M383.9,524.9c1.3,0,2.1-1.1,2.1-2.6s-0.8-2.5-2.1-2.5s-2.1,1-2.1,2.5S382.5,524.9,383.9,524.9z M402.4,525.9l-5.7-8.7v8.7h-1.5
	v-10.6h2l5.3,8.2v-8.2h1.5v10.6H402.4L402.4,525.9z M413.5,523.9c-0.4,1.3-1.6,2.3-3.2,2.3c-1.9,0-3.6-1.4-3.6-3.9
	c0-2.3,1.6-3.8,3.4-3.8c2.2,0,3.5,1.5,3.5,3.8v0.4h-5.4c0,1.3,1,2.2,2.2,2.2s1.8-0.6,2-1.5L413.5,523.9z M412,521.6
	c0-1-0.7-1.8-2-1.8c-1.2,0-1.9,0.9-2,1.8H412z M421.5,518.7l1.9,5.4l1.6-5.4h1.5l-2.3,7.2h-1.5l-1.9-5.5l-1.9,5.5h-1.5l-2.4-7.2h1.5
	l1.6,5.4l1.9-5.4H421.5L421.5,518.7z M432.6,520.6c0-3.6,2.6-5.5,5.3-5.5c2.4,0,4.1,1.3,4.7,3.4l-1.4,0.5c-0.4-1.6-1.6-2.5-3.3-2.5
	c-1.9,0-3.8,1.4-3.8,4.2s1.8,4.2,3.8,4.2c1.8,0,3-1.1,3.4-2.5l1.3,0.5c-0.6,2-2.2,3.4-4.7,3.4C435.1,526.2,432.6,524.2,432.6,520.6
	L432.6,520.6z M451.6,522.3c0,2.2-1.5,3.8-3.7,3.8s-3.7-1.6-3.7-3.8s1.5-3.8,3.7-3.8S451.6,520.1,451.6,522.3z M450.2,522.3
	c0-1.7-1.1-2.6-2.2-2.6s-2.2,0.9-2.2,2.6c0,1.7,1,2.6,2.2,2.6S450.2,524,450.2,522.3z M454.2,525.9v-7.2h1.3v1
	c0.4-0.8,1.4-1.2,2.2-1.2c0.9,0,1.8,0.4,2.2,1.4c0.6-1,1.5-1.4,2.4-1.4c1.3,0,2.5,0.9,2.5,2.7v4.7h-1.4v-4.5c0-0.9-0.5-1.7-1.5-1.7
	s-1.7,0.8-1.7,1.8v4.4h-1.4v-4.5c0-0.9-0.4-1.7-1.5-1.7c-1,0-1.7,0.8-1.7,1.8v4.3h-1.4V525.9z M467.8,525.9v-7.2h1.3v1
	c0.4-0.8,1.4-1.2,2.2-1.2c0.9,0,1.8,0.4,2.2,1.4c0.6-1,1.5-1.4,2.4-1.4c1.3,0,2.5,0.9,2.5,2.7v4.7H477v-4.5c0-0.9-0.5-1.7-1.5-1.7
	s-1.7,0.8-1.7,1.8v4.4h-1.4v-4.5c0-0.9-0.4-1.7-1.5-1.7c-1,0-1.7,0.8-1.7,1.8v4.3h-1.4V525.9z M482.1,515c0.6,0,1,0.4,1,1
	s-0.4,1-1,1s-1-0.5-1-1C481.1,515.4,481.5,515,482.1,515z M481.4,525.9v-7.2h1.4v7.2H481.4z M487.8,518.7h1.6v1.3h-1.6v3.8
	c0,0.7,0.3,1,1,1c0.2,0,0.4,0,0.6-0.1v1.2c-0.1,0-0.5,0.1-1,0.1c-1.2,0-2-0.8-2-2.1v-4H485v-1.3h0.4c0.8,0,1.1-0.5,1.1-1.1v-1.2h1.3
	V518.7L487.8,518.7z"/>
<path class="st1" d="M315.4,520.4h13 M317.3,515.9l9.2,9.1 M326.5,515.9l-9.2,9.1 M321.9,513.9v13"/>
<path class="st2" d="M188,309.5h216.1"/>
<path class="st3" d="M245.8,268.5c0,22.6-18.4,41-41,41 M245.8,268.5c0-22.6,18.4-41,41-41h407.5"/>
<circle class="st4" cx="330.1" cy="227.5" r="21"/>
<circle class="st4" cx="426.4" cy="227.5" r="21"/>
<circle class="st4" cx="522.7" cy="227.5" r="21"/>
<circle class="st5" cx="619" cy="227.5" r="21"/>
<circle class="st5" cx="715.3" cy="227.5" r="21"/>
<path class="st3" d="M34.7,309.5h170.1"/>
<circle class="st6" cx="55.7" cy="309.5" r="21"/>
<circle class="st6" cx="151.7" cy="309.5" r="21"/>
<circle class="st7" cx="329.1" cy="309.5" r="21"/>
<circle class="st7" cx="425.1" cy="309.5" r="21"/>
<path class="st8" d="M472.7,86.5h100v50h-100V86.5z"/>
<path class="st0" d="M495.9,117.5v-10.6h6.5v1.4h-5v3.4h4.5v1.4h-4.5v4.5h-1.5V117.5z M510.5,115.4c-0.4,1.3-1.6,2.3-3.2,2.3
	c-1.9,0-3.6-1.4-3.6-3.9c0-2.3,1.6-3.8,3.4-3.8c2.2,0,3.5,1.5,3.5,3.8v0.4h-5.4c0,1.3,1,2.2,2.2,2.2s1.8-0.6,2-1.5L510.5,115.4z
	 M509.1,113.1c0-1-0.7-1.8-2-1.8c-1.2,0-1.9,0.9-2,1.8H509.1z M514.8,113.4l1.9-0.3c0.4-0.1,0.6-0.3,0.6-0.5c0-0.7-0.5-1.3-1.6-1.3
	c-1,0-1.5,0.6-1.6,1.5l-1.4-0.3c0.2-1.4,1.4-2.3,3-2.3c2.2,0,3,1.2,3,2.6v3.6c0,0.6,0.1,1,0.1,1.2h-1.4c0-0.2-0.1-0.5-0.1-1
	c-0.3,0.5-1,1.2-2.3,1.2c-1.5,0-2.4-1-2.4-2.2C512.6,114.3,513.6,113.5,514.8,113.4L514.8,113.4z M517.3,114.4v-0.3l-2.2,0.3
	c-0.6,0.1-1.1,0.4-1.1,1.1c0,0.5,0.4,1,1.2,1C516.4,116.5,517.3,116,517.3,114.4z M523.6,110.3h1.6v1.3h-1.6v3.8c0,0.7,0.3,1,1,1
	c0.2,0,0.4,0,0.6-0.1v1.2c-0.1,0-0.5,0.1-1,0.1c-1.2,0-2-0.8-2-2.1v-4h-1.4v-1.3h0.4c0.8,0,1.1-0.5,1.1-1.1V108h1.3L523.6,110.3
	L523.6,110.3z M530.4,117.7c-1.7,0-2.7-1.3-2.7-2.9v-4.5h1.4v4.3c0,1,0.4,1.9,1.6,1.9c1.1,0,1.7-0.8,1.7-1.8v-4.4h1.4v5.9
	c0,0.6,0,1.1,0.1,1.3h-1.4c0-0.2-0.1-0.6-0.1-0.9C532.1,117.4,531.2,117.7,530.4,117.7z M541,111.7h-0.6c-1.2,0-2,0.6-2,2.2v3.6H537
	v-7.2h1.4v1.3c0.5-1.1,1.4-1.4,2.2-1.4h0.5v1.5H541z M549.5,115.4c-0.4,1.3-1.6,2.3-3.2,2.3c-1.9,0-3.6-1.4-3.6-3.9
	c0-2.3,1.6-3.8,3.4-3.8c2.2,0,3.5,1.5,3.5,3.8v0.4H544c0,1.3,1,2.2,2.2,2.2s1.8-0.6,2-1.5L549.5,115.4L549.5,115.4z M548,113.1
	c0-1-0.7-1.8-2-1.8c-1.2,0-1.9,0.9-2,1.8H548z"/>
<path class="st9" d="M522.7,182.3v-23.5 M533.5,173.6l-10.8,10.9l-10.9-10.9"/>
<path class="st5" d="M665.3,86.5h100v50h-100V86.5z"/>
<path class="st9" d="M715.3,182.3v-23.5 M726.1,173.6l-10.8,10.9l-10.9-10.9 M715.3,272v23.5 M704.4,280.7l10.9-10.9l10.8,10.9"/>
<path class="st7" d="M375.1,401.4h100v50h-100V401.4z"/>
<path class="st2" d="M425.1,354.9v23.5 M414.3,363.6l10.8-10.9l10.9,10.9"/>
<path class="st9" d="M478.5,320.2l-10.8-10.8l10.8-10.9"/>
<path class="st1" d="M708.8,227.5h13 M710.7,222.9l9.2,9.2 M719.9,222.9l-9.2,9.2 M715.3,221v13 M612.5,227.5h13 M614.4,222.9
	l9.2,9.2 M623.6,222.9l-9.2,9.2 M619,221v13"/>
<path class="st0" d="M696.4,316.8h1.8l2.8,4.7l2.8-4.7h1.7l-3.7,6.1v4.5h-1.5v-4.5L696.4,316.8L696.4,316.8z M712.9,323.8
	c0,2.2-1.5,3.8-3.7,3.8s-3.7-1.6-3.7-3.8c0-2.2,1.5-3.8,3.7-3.8S712.9,321.6,712.9,323.8z M711.5,323.8c0-1.7-1.1-2.6-2.2-2.6
	s-2.2,0.9-2.2,2.6s1.1,2.6,2.2,2.6S711.5,325.5,711.5,323.8z M718,327.7c-1.7,0-2.7-1.3-2.7-2.9v-4.5h1.4v4.3c0,1,0.4,1.9,1.6,1.9
	c1.1,0,1.7-0.8,1.7-1.8v-4.4h1.4v5.9c0,0.6,0,1.1,0.1,1.3h-1.4c0-0.2-0.1-0.6-0.1-0.9C719.8,327.3,718.9,327.7,718,327.7z
	 M728.7,321.7h-0.6c-1.2,0-2,0.6-2,2.2v3.6h-1.4v-7.2h1.4v1.3c0.5-1.1,1.4-1.4,2.2-1.4h0.5v1.5H728.7z M690.7,363.5v-10.9h1.4v4.7
	c0.3-0.6,1.2-1.2,2.4-1.2c2.2,0,3.3,1.7,3.3,3.8c0,2.1-1.2,3.8-3.4,3.8c-1.1,0-1.9-0.5-2.3-1.2v1L690.7,363.5L690.7,363.5z
	 M694.2,357.3c-1.2,0-2.1,1-2.1,2.5c0,1.6,0.9,2.6,2.1,2.6c1.3,0,2.1-1,2.1-2.6S695.5,357.3,694.2,357.3z M704.3,357.7h-0.6
	c-1.2,0-2,0.6-2,2.2v3.6h-1.4v-7.2h1.4v1.3c0.5-1.1,1.4-1.4,2.2-1.4h0.5v1.5H704.3z M708.3,359.3l1.9-0.3c0.4-0.1,0.6-0.3,0.6-0.5
	c0-0.7-0.5-1.3-1.6-1.3c-1,0-1.5,0.6-1.6,1.5l-1.4-0.3c0.2-1.4,1.4-2.3,3-2.3c2.2,0,3,1.2,3,2.6v3.6c0,0.6,0.1,1,0.1,1.2h-1.4
	c0-0.2-0.1-0.5-0.1-1c-0.3,0.5-1,1.2-2.3,1.2c-1.5,0-2.4-1-2.4-2.2C706.1,360.2,707.1,359.5,708.3,359.3L708.3,359.3z M710.8,360.4
	V360l-2.2,0.3c-0.6,0.1-1,0.4-1,1.1c0,0.5,0.4,1,1.2,1C709.9,362.5,710.8,361.9,710.8,360.4z M716.6,363.5h-1.4v-7.2h1.4v1
	c0.5-0.9,1.4-1.2,2.2-1.2c1.7,0,2.6,1.2,2.6,2.9v4.6H720v-4.3c0-1-0.4-1.8-1.7-1.8c-1.1,0-1.7,0.9-1.7,2V363.5L716.6,363.5z
	 M725.2,359.8c0,1.6,1,2.5,2.2,2.5c1.3,0,1.8-0.9,2-1.5l1.2,0.5c-0.3,1-1.4,2.2-3.3,2.2c-2.1,0-3.6-1.6-3.6-3.8
	c0-2.2,1.6-3.8,3.6-3.8c1.9,0,2.9,1.2,3.2,2.3l-1.3,0.5c-0.2-0.7-0.7-1.5-1.9-1.5C726.2,357.3,725.2,358.2,725.2,359.8L725.2,359.8z
	 M734.5,363.5h-1.4v-10.9h1.4v4.5c0.5-0.8,1.4-1.1,2.2-1.1c1.7,0,2.6,1.2,2.6,2.9v4.6h-1.4v-4.3c0-1-0.4-1.8-1.7-1.8
	c-1.1,0-1.6,0.8-1.7,1.9L734.5,363.5L734.5,363.5z M526,403v-10.6h6.5v1.4h-5v3.3h4.5v1.4h-4.5v3.3h5v1.4H526V403z M538.4,403H537
	l-2.9-7.2h1.6l2.1,5.6l2.1-5.6h1.5L538.4,403L538.4,403z M549.4,401c-0.4,1.3-1.6,2.3-3.2,2.3c-1.9,0-3.6-1.4-3.6-3.9
	c0-2.3,1.6-3.8,3.4-3.8c2.2,0,3.5,1.5,3.5,3.8v0.5H544c0,1.3,1,2.2,2.2,2.2s1.8-0.6,2-1.5L549.4,401L549.4,401z M548,398.7
	c0-1-0.7-1.8-2-1.8c-1.2,0-1.9,0.9-2,1.8H548z M556,397.3h-0.6c-1.2,0-2,0.6-2,2.2v3.6H552v-7.2h1.4v1.3c0.5-1.1,1.4-1.4,2.2-1.4
	h0.5v1.5H556z M558.7,406.1l1.8-3.8l-3.1-6.4h1.6l2.2,5l2.2-5h1.5l-4.7,10.2L558.7,406.1L558.7,406.1z M567.1,403v-10.9h1.4v4.7
	c0.3-0.6,1.2-1.2,2.4-1.2c2.2,0,3.3,1.7,3.3,3.8c0,2.1-1.2,3.8-3.4,3.8c-1.1,0-1.9-0.5-2.3-1.2v1L567.1,403L567.1,403z M570.6,396.9
	c-1.2,0-2.1,1-2.1,2.5c0,1.6,0.9,2.6,2.1,2.6c1.3,0,2.1-1,2.1-2.6S571.9,396.9,570.6,396.9z M583.5,399.4c0,2.2-1.5,3.8-3.7,3.8
	s-3.7-1.6-3.7-3.8c0-2.2,1.5-3.8,3.7-3.8S583.5,397.2,583.5,399.4z M582.1,399.4c0-1.7-1.1-2.6-2.2-2.6s-2.2,0.9-2.2,2.6
	s1.1,2.6,2.2,2.6S582.1,401.1,582.1,399.4z M591.1,402c-0.3,0.7-1.1,1.3-2.2,1.3c-2.1,0-3.4-1.7-3.4-3.8c0-2,1.4-3.8,3.4-3.8
	c1.3,0,2,0.6,2.2,1.2v-4.7h1.4v9.5c0,0.7,0.1,1.2,0.1,1.3h-1.4C591.2,402.8,591.1,402.5,591.1,402z M589,402c1.3,0,2.1-1.1,2.1-2.6
	s-0.8-2.5-2.1-2.5s-2.1,1-2.1,2.5S587.6,402,589,402z M595.9,406.1l1.8-3.8l-3.1-6.4h1.6l2.2,5l2.2-5h1.5l-4.7,10.2L595.9,406.1
	L595.9,406.1z M615,401c-0.4,1.3-1.6,2.3-3.2,2.3c-1.9,0-3.6-1.4-3.6-3.9c0-2.3,1.6-3.8,3.4-3.8c2.2,0,3.5,1.5,3.5,3.8v0.5h-5.4
	c0,1.3,1,2.2,2.2,2.2s1.8-0.6,2-1.5L615,401z M613.6,398.7c0-1-0.7-1.8-2-1.8c-1.2,0-1.9,0.9-2,1.8H613.6z M617.6,403v-10.9h1.4V403
	H617.6z M622.7,400.7c0.1,0.8,0.7,1.3,1.7,1.3c0.8,0,1.2-0.4,1.2-1c0-0.4-0.3-0.8-0.9-0.9l-1.2-0.3c-1.1-0.2-1.8-1-1.8-2
	c0-1.2,1.2-2.3,2.6-2.3c2,0,2.6,1.3,2.7,1.9l-1.2,0.5c-0.1-0.4-0.4-1.2-1.5-1.2c-0.7,0-1.2,0.5-1.2,1c0,0.4,0.3,0.8,0.8,0.9l1.2,0.3
	c1.3,0.3,2,1.1,2,2.1s-0.9,2.2-2.6,2.2c-2,0-2.8-1.3-2.9-2.1L622.7,400.7L622.7,400.7z M635.9,401c-0.4,1.3-1.6,2.3-3.2,2.3
	c-1.9,0-3.6-1.4-3.6-3.9c0-2.3,1.6-3.8,3.4-3.8c2.2,0,3.5,1.5,3.5,3.8v0.5h-5.4c0,1.3,1,2.2,2.2,2.2s1.8-0.6,2-1.5L635.9,401z
	 M634.5,398.7c0-1-0.7-1.8-2-1.8c-1.2,0-1.9,0.9-2,1.8H634.5z M638.3,392.3c0.6,0,1.1,0.5,1.1,1.3c0,1.9-1.2,2.6-2.1,2.7v-0.7
	c0.7-0.2,1.1-0.8,1.2-1.5c0,0-0.2,0.1-0.3,0.1c-0.5,0-0.9-0.4-0.9-1C637.3,392.7,637.7,392.3,638.3,392.3z M641.8,400.7
	c0.1,0.8,0.7,1.3,1.7,1.3c0.8,0,1.2-0.4,1.2-1c0-0.4-0.3-0.8-0.9-0.9l-1.2-0.3c-1.1-0.2-1.8-1-1.8-2c0-1.2,1.2-2.3,2.6-2.3
	c2,0,2.6,1.3,2.7,1.9l-1.2,0.5c-0.1-0.4-0.4-1.2-1.5-1.2c-0.7,0-1.2,0.5-1.2,1c0,0.4,0.3,0.8,0.8,0.9l1.2,0.3c1.3,0.3,2,1.1,2,2.1
	s-0.9,2.2-2.6,2.2c-2,0-2.8-1.3-2.9-2.1L641.8,400.7L641.8,400.7z M581.2,421v-10.9h1.4v4.7c0.3-0.6,1.2-1.2,2.4-1.2
	c2.2,0,3.3,1.7,3.3,3.8c0,2.1-1.2,3.8-3.4,3.8c-1.1,0-1.9-0.5-2.3-1.2v1L581.2,421L581.2,421z M584.7,414.9c-1.2,0-2.1,1-2.1,2.5
	c0,1.6,0.9,2.6,2.1,2.6c1.3,0,2.1-1,2.1-2.6S586,414.9,584.7,414.9z M594.8,415.3h-0.6c-1.2,0-2,0.6-2,2.2v3.6h-1.4v-7.2h1.4v1.3
	c0.5-1.1,1.4-1.4,2.2-1.4h0.5v1.5H594.8z M598.8,416.9l1.9-0.3c0.4-0.1,0.6-0.3,0.6-0.5c0-0.7-0.5-1.3-1.6-1.3c-1,0-1.5,0.6-1.6,1.5
	l-1.4-0.3c0.2-1.4,1.4-2.3,3-2.3c2.2,0,3,1.2,3,2.6v3.6c0,0.6,0.1,1,0.1,1.2h-1.4c0-0.2-0.1-0.5-0.1-1c-0.3,0.5-1,1.2-2.3,1.2
	c-1.5,0-2.4-1-2.4-2.2C596.6,417.8,597.6,417.1,598.8,416.9L598.8,416.9z M601.3,418v-0.3l-2.2,0.3c-0.6,0.1-1.1,0.4-1.1,1.1
	c0,0.5,0.4,1,1.2,1C600.4,420.1,601.3,419.5,601.3,418z M607.1,421h-1.4v-7.2h1.4v1c0.5-0.9,1.4-1.2,2.2-1.2c1.7,0,2.6,1.2,2.6,2.8
	v4.6h-1.4v-4.3c0-1-0.4-1.8-1.7-1.8c-1.1,0-1.7,0.9-1.7,2L607.1,421L607.1,421z M615.7,417.4c0,1.7,1,2.5,2.2,2.5
	c1.3,0,1.8-0.9,2-1.5l1.2,0.5c-0.3,1-1.4,2.2-3.3,2.2c-2.1,0-3.6-1.6-3.6-3.8c0-2.2,1.6-3.8,3.6-3.8c1.9,0,2.9,1.2,3.2,2.3l-1.3,0.5
	c-0.2-0.7-0.7-1.5-1.9-1.5C616.7,414.9,615.7,415.8,615.7,417.4L615.7,417.4z M624.9,421h-1.4v-10.9h1.4v4.5c0.5-0.8,1.4-1,2.2-1
	c1.7,0,2.6,1.2,2.6,2.8v4.6h-1.4v-4.3c0-1-0.4-1.8-1.7-1.8c-1.1,0-1.6,0.8-1.7,1.9L624.9,421L624.9,421z"/>
<path class="st9" d="M574.2,371.6c-19.7-37.2-58.7-62.5-103.7-62.5"/>
<g>
	<path d="M699.3,117.6v-10h2l2.4,7.1c0.2,0.7,0.4,1.2,0.5,1.5c0.1-0.4,0.3-0.9,0.5-1.6l2.4-7h1.8v10h-1.3v-8.4l-2.9,8.4h-1.2
		l-2.9-8.5v8.5H699.3z"/>
	<path d="M716.2,116.7c-0.5,0.4-0.9,0.7-1.3,0.8c-0.4,0.2-0.9,0.2-1.4,0.2c-0.8,0-1.4-0.2-1.8-0.6c-0.4-0.4-0.6-0.9-0.6-1.5
		c0-0.4,0.1-0.7,0.2-1c0.2-0.3,0.4-0.5,0.6-0.7c0.3-0.2,0.6-0.3,0.9-0.4c0.2-0.1,0.6-0.1,1.1-0.2c1-0.1,1.7-0.3,2.2-0.4
		c0-0.2,0-0.3,0-0.3c0-0.5-0.1-0.9-0.3-1.1c-0.3-0.3-0.8-0.4-1.4-0.4c-0.6,0-1,0.1-1.3,0.3c-0.3,0.2-0.5,0.6-0.6,1.1l-1.2-0.2
		c0.1-0.5,0.3-0.9,0.5-1.2c0.3-0.3,0.6-0.6,1.1-0.7c0.5-0.2,1-0.3,1.6-0.3s1.1,0.1,1.5,0.2s0.7,0.3,0.9,0.6c0.2,0.2,0.3,0.5,0.4,0.8
		c0,0.2,0.1,0.6,0.1,1.1v1.6c0,1.1,0,1.9,0.1,2.2c0.1,0.3,0.2,0.6,0.3,0.9h-1.3C716.4,117.4,716.3,117.1,716.2,116.7z M716.1,114
		c-0.4,0.2-1.1,0.3-2,0.5c-0.5,0.1-0.9,0.2-1.1,0.2s-0.4,0.2-0.5,0.4c-0.1,0.2-0.2,0.4-0.2,0.6c0,0.3,0.1,0.6,0.4,0.8
		c0.2,0.2,0.6,0.3,1.1,0.3s0.9-0.1,1.3-0.3c0.4-0.2,0.6-0.5,0.8-0.9c0.1-0.3,0.2-0.7,0.2-1.2V114z"/>
	<path d="M720,109v-1.4h1.2v1.4H720z M720,117.6v-7.3h1.2v7.3H720z"/>
	<path d="M723.8,117.6v-7.3h1.1v1c0.5-0.8,1.3-1.2,2.3-1.2c0.4,0,0.8,0.1,1.2,0.2c0.4,0.2,0.6,0.4,0.8,0.6s0.3,0.6,0.4,0.9
		c0,0.2,0.1,0.6,0.1,1.2v4.5h-1.2v-4.4c0-0.5,0-0.9-0.1-1.1s-0.3-0.4-0.5-0.6c-0.2-0.1-0.5-0.2-0.9-0.2c-0.5,0-1,0.2-1.4,0.5
		s-0.6,1-0.6,1.9v4H723.8z"/>
</g>
<g>
	<path d="M409.7,431.4v-10h2l2.4,7.1c0.2,0.7,0.4,1.2,0.5,1.5c0.1-0.4,0.3-0.9,0.5-1.6l2.4-7h1.8v10H418V423l-2.9,8.4h-1.2l-2.9-8.5
		v8.5H409.7z"/>
	<path d="M426.7,430.5c-0.5,0.4-0.9,0.7-1.3,0.8c-0.4,0.2-0.9,0.2-1.4,0.2c-0.8,0-1.4-0.2-1.8-0.6s-0.6-0.9-0.6-1.5
		c0-0.4,0.1-0.7,0.2-1c0.2-0.3,0.4-0.5,0.6-0.7c0.3-0.2,0.6-0.3,0.9-0.4c0.2-0.1,0.6-0.1,1.1-0.2c1-0.1,1.7-0.3,2.2-0.4
		c0-0.2,0-0.3,0-0.3c0-0.5-0.1-0.9-0.3-1.1c-0.3-0.3-0.8-0.4-1.4-0.4s-1,0.1-1.3,0.3c-0.3,0.2-0.5,0.6-0.6,1.1l-1.2-0.2
		c0.1-0.5,0.3-0.9,0.5-1.2c0.3-0.3,0.6-0.6,1.1-0.7c0.5-0.2,1-0.3,1.6-0.3s1.1,0.1,1.5,0.2s0.7,0.3,0.9,0.6c0.2,0.2,0.3,0.5,0.4,0.8
		c0,0.2,0.1,0.6,0.1,1.1v1.6c0,1.1,0,1.9,0.1,2.2c0.1,0.3,0.2,0.6,0.3,0.9H427C426.8,431.1,426.7,430.8,426.7,430.5z M426.6,427.7
		c-0.4,0.2-1.1,0.3-2,0.5c-0.5,0.1-0.9,0.2-1.1,0.2s-0.4,0.2-0.5,0.4c-0.1,0.2-0.2,0.4-0.2,0.6c0,0.3,0.1,0.6,0.4,0.8
		c0.2,0.2,0.6,0.3,1.1,0.3s0.9-0.1,1.3-0.3c0.4-0.2,0.6-0.5,0.8-0.9c0.1-0.3,0.2-0.7,0.2-1.2L426.6,427.7L426.6,427.7z"/>
	<path d="M430.5,422.8v-1.4h1.2v1.4H430.5z M430.5,431.4v-7.3h1.2v7.3H430.5z"/>
	<path d="M434.3,431.4v-7.3h1.1v1c0.5-0.8,1.3-1.2,2.3-1.2c0.4,0,0.8,0.1,1.2,0.2c0.4,0.2,0.6,0.4,0.8,0.6s0.3,0.6,0.4,0.9
		c0,0.2,0.1,0.6,0.1,1.2v4.5H439V427c0-0.5,0-0.9-0.1-1.1s-0.3-0.4-0.5-0.6c-0.2-0.1-0.5-0.2-0.9-0.2c-0.5,0-1,0.2-1.4,0.5
		s-0.6,1-0.6,1.9v4L434.3,431.4L434.3,431.4z"/>
</g>
<g>
	<path class="st0" d="M698.7,345v-7.2h1.3v1c0.4-0.8,1.4-1.2,2.2-1.2c0.9,0,1.8,0.4,2.2,1.4c0.6-1,1.5-1.4,2.4-1.4
		c1.3,0,2.5,0.9,2.5,2.7v4.7h-1.4v-4.5c0-0.9-0.5-1.6-1.5-1.6s-1.7,0.8-1.7,1.8v4.4h-1.4v-4.5c0-0.9-0.4-1.6-1.5-1.6
		c-1,0-1.7,0.8-1.7,1.8v4.3L698.7,345L698.7,345z"/>
	<g>
		<path class="st0" d="M715.8,344.1c-0.5,0.4-0.9,0.7-1.3,0.8c-0.4,0.2-0.9,0.2-1.4,0.2c-0.8,0-1.4-0.2-1.8-0.6
			c-0.4-0.4-0.6-0.9-0.6-1.5c0-0.4,0.1-0.7,0.2-1c0.2-0.3,0.4-0.5,0.6-0.7c0.3-0.2,0.6-0.3,0.9-0.4c0.2-0.1,0.6-0.1,1.1-0.2
			c1-0.1,1.7-0.3,2.2-0.4c0-0.2,0-0.3,0-0.3c0-0.5-0.1-0.9-0.3-1.1c-0.3-0.3-0.8-0.4-1.4-0.4c-0.6,0-1,0.1-1.3,0.3
			c-0.3,0.2-0.5,0.6-0.6,1.1l-1.2-0.2c0.1-0.5,0.3-0.9,0.5-1.2c0.3-0.3,0.6-0.6,1.1-0.7c0.5-0.2,1-0.3,1.6-0.3s1.1,0.1,1.5,0.2
			s0.7,0.3,0.9,0.6c0.2,0.2,0.3,0.5,0.4,0.8c0,0.2,0.1,0.6,0.1,1.1v1.6c0,1.1,0,1.9,0.1,2.2c0.1,0.3,0.2,0.6,0.3,0.9H716
			C715.9,344.7,715.8,344.4,715.8,344.1z M715.7,341.3c-0.4,0.2-1.1,0.3-2,0.5c-0.5,0.1-0.9,0.2-1.1,0.2s-0.4,0.2-0.5,0.4
			c-0.1,0.2-0.2,0.4-0.2,0.6c0,0.3,0.1,0.6,0.4,0.8c0.2,0.2,0.6,0.3,1.1,0.3s0.9-0.1,1.3-0.3c0.4-0.2,0.6-0.5,0.8-0.9
			c0.1-0.3,0.2-0.7,0.2-1.2V341.3z"/>
		<path class="st0" d="M719.5,336.4V335h1.2v1.4H719.5z M719.5,345v-7.3h1.2v7.3H719.5z"/>
		<path class="st0" d="M723.3,345v-7.3h1.1v1c0.5-0.8,1.3-1.2,2.3-1.2c0.4,0,0.8,0.1,1.2,0.2c0.4,0.2,0.6,0.4,0.8,0.6
			s0.3,0.6,0.4,0.9c0,0.2,0.1,0.6,0.1,1.2v4.5H728v-4.4c0-0.5,0-0.9-0.1-1.1s-0.3-0.4-0.5-0.6c-0.2-0.1-0.5-0.2-0.9-0.2
			c-0.5,0-1,0.2-1.4,0.5s-0.6,1-0.6,1.9v4H723.3z"/>
	</g>
</g>
<g>
	<path class="st0" d="M543.1,421.6v-7.2h1.3v1c0.4-0.8,1.4-1.2,2.2-1.2c0.9,0,1.8,0.4,2.2,1.4c0.6-1,1.5-1.4,2.4-1.4
		c1.3,0,2.5,0.9,2.5,2.7v4.7h-1.4v-4.5c0-0.9-0.5-1.6-1.5-1.6s-1.7,0.8-1.7,1.8v4.4h-1.4v-4.5c0-0.9-0.4-1.6-1.5-1.6
		c-1,0-1.7,0.8-1.7,1.8v4.3L543.1,421.6L543.1,421.6z"/>
	<g>
		<path class="st0" d="M560.2,420.7c-0.5,0.4-0.9,0.7-1.3,0.8c-0.4,0.2-0.9,0.2-1.4,0.2c-0.8,0-1.4-0.2-1.8-0.6
			c-0.4-0.4-0.6-0.9-0.6-1.5c0-0.4,0.1-0.7,0.2-1c0.2-0.3,0.4-0.5,0.6-0.7c0.3-0.2,0.6-0.3,0.9-0.4c0.2-0.1,0.6-0.1,1.1-0.2
			c1-0.1,1.7-0.3,2.2-0.4c0-0.2,0-0.3,0-0.3c0-0.5-0.1-0.9-0.3-1.1c-0.3-0.3-0.8-0.4-1.4-0.4c-0.6,0-1,0.1-1.3,0.3
			c-0.3,0.2-0.5,0.6-0.6,1.1l-1.2-0.2c0.1-0.5,0.3-0.9,0.5-1.2c0.3-0.3,0.6-0.6,1.1-0.7c0.5-0.2,1-0.3,1.6-0.3s1.1,0.1,1.5,0.2
			s0.7,0.3,0.9,0.6c0.2,0.2,0.3,0.5,0.4,0.8c0,0.2,0.1,0.6,0.1,1.1v1.6c0,1.1,0,1.9,0.1,2.2c0.1,0.3,0.2,0.6,0.3,0.9h-1.3
			C560.3,421.4,560.3,421.1,560.2,420.7z M560.1,418c-0.4,0.2-1.1,0.3-2,0.5c-0.5,0.1-0.9,0.2-1.1,0.2s-0.4,0.2-0.5,0.4
			c-0.1,0.2-0.2,0.4-0.2,0.6c0,0.3,0.1,0.6,0.4,0.8c0.2,0.2,0.6,0.3,1.1,0.3s0.9-0.1,1.3-0.3c0.4-0.2,0.6-0.5,0.8-0.9
			c0.1-0.3,0.2-0.7,0.2-1.2V418z"/>
		<path class="st0" d="M564,413v-1.4h1.2v1.4H564z M564,421.6v-7.3h1.2v7.3H564z"/>
		<path class="st0" d="M567.8,421.6v-7.3h1.1v1c0.5-0.8,1.3-1.2,2.3-1.2c0.4,0,0.8,0.1,1.2,0.2c0.4,0.2,0.6,0.4,0.8,0.6
			s0.3,0.6,0.4,0.9c0,0.2,0.1,0.6,0.1,1.2v4.5h-1.2v-4.4c0-0.5,0-0.9-0.1-1.1s-0.3-0.4-0.5-0.6c-0.2-0.1-0.5-0.2-0.9-0.2
			c-0.5,0-1,0.2-1.4,0.5s-0.6,1-0.6,1.9v4H567.8z"/>
	</g>
</g>
<g>
	<path class="st10" d="M307.8,9.7h-1.6V14h-1.5V3.4h4c2,0,3.3,1.4,3.3,3.2c0,1.5-1,2.7-2.6,3l2.5,4.5h-1.7L307.8,9.7L307.8,9.7z
		 M308.5,8.4c1.2,0,2-0.7,2-1.8s-0.8-1.8-2-1.8h-2.3v3.6H308.5z M320.6,12c-0.4,1.3-1.6,2.3-3.2,2.3c-1.9,0-3.6-1.4-3.6-3.9
		c0-2.3,1.6-3.8,3.4-3.8c2.2,0,3.5,1.5,3.5,3.8v0.5h-5.5c0,1.3,1,2.2,2.2,2.2s1.8-0.6,2-1.5C319.5,11.6,320.6,12,320.6,12z
		 M319.2,9.7c0-1-0.7-1.8-2-1.8c-1.2,0-1.9,0.9-2,1.8H319.2z M323.2,14.1V3.2h1.4v4.7c0.3-0.6,1.2-1.2,2.4-1.2
		c2.2,0,3.3,1.7,3.3,3.8s-1.2,3.8-3.4,3.8c-1.1,0-1.9-0.5-2.3-1.2v1H323.2z M326.8,7.9c-1.2,0-2.1,1-2.1,2.5c0,1.6,0.9,2.6,2.1,2.6
		c1.3,0,2.1-1,2.1-2.6C329,8.9,328.1,7.9,326.8,7.9z M334.6,9.9l1.9-0.3c0.4-0.1,0.6-0.3,0.6-0.5c0-0.7-0.5-1.3-1.6-1.3
		c-1,0-1.5,0.6-1.6,1.5L332.6,9c0.2-1.4,1.4-2.3,3-2.3c2.2,0,3,1.2,3,2.6v3.6c0,0.6,0.1,1,0.1,1.2h-1.5c0-0.2-0.1-0.5-0.1-1
		c-0.3,0.5-1,1.2-2.3,1.2c-1.5,0-2.4-1-2.4-2.2C332.5,10.8,333.5,10.1,334.6,9.9L334.6,9.9z M337.1,11v-0.3l-2.2,0.3
		c-0.6,0.1-1,0.4-1,1.1c0,0.5,0.4,1,1.2,1C336.2,13.1,337.1,12.6,337.1,11z M342.1,11.7c0.1,0.8,0.7,1.3,1.7,1.3
		c0.8,0,1.2-0.4,1.2-1c0-0.4-0.3-0.8-0.9-0.9l-1.2-0.3c-1.1-0.2-1.8-1-1.8-2c0-1.2,1.2-2.3,2.6-2.3c2,0,2.6,1.3,2.7,1.9L345.1,9
		c-0.1-0.4-0.4-1.2-1.5-1.2c-0.7,0-1.2,0.5-1.2,1c0,0.4,0.3,0.8,0.8,0.9l1.2,0.3c1.3,0.3,2,1.1,2,2.1s-0.9,2.2-2.6,2.2
		c-2,0-2.8-1.3-2.9-2.1L342.1,11.7L342.1,11.7z M349.8,3.1c0.6,0,1,0.5,1,1c0,0.6-0.4,1-1,1c-0.6,0-1-0.5-1-1S349.1,3.1,349.8,3.1z
		 M349,14.1V6.9h1.4v7.2H349z M355,14.1h-1.4V6.9h1.4v1c0.5-0.9,1.4-1.2,2.2-1.2c1.7,0,2.6,1.2,2.6,2.8v4.6h-1.4V9.7
		c0-1-0.4-1.8-1.7-1.8c-1.1,0-1.7,0.9-1.7,2V14.1z M363.6,14.1c0.1,1,0.9,1.8,2,1.8c1.5,0,2.2-0.8,2.2-2.3v-1
		c-0.3,0.7-1.1,1.2-2.2,1.2c-1.9,0-3.3-1.5-3.3-3.5s1.3-3.5,3.3-3.5c1.1,0,1.9,0.4,2.2,1.1v-1h1.4v6.7c0,1.8-0.9,3.6-3.6,3.6
		c-1.8,0-3.1-1.1-3.3-2.7C362.3,14.5,363.6,14.1,363.6,14.1z M367.8,10.2c0-1.4-0.8-2.3-2.1-2.3c-1.2,0-2.1,0.9-2.1,2.3
		s0.8,2.3,2.1,2.3C367,12.5,367.8,11.6,367.8,10.2z M378.5,6.9h1.6v1.3h-1.6V12c0,0.7,0.3,1,1,1c0.2,0,0.4,0,0.6-0.1V14
		c-0.1,0-0.5,0.1-1,0.1c-1.2,0-2-0.8-2-2.1V8h-1.4V6.9h0.4c0.8,0,1.1-0.5,1.1-1.1V4.6h1.3V6.9z M384.1,14.1h-1.4V3.2h1.4v4.5
		c0.5-0.8,1.4-1,2.2-1c1.7,0,2.6,1.2,2.6,2.8v4.6h-1.4V9.7c0-1-0.4-1.8-1.7-1.8c-1.1,0-1.6,0.8-1.7,1.9V14.1z M398.2,12
		c-0.4,1.3-1.6,2.3-3.2,2.3c-1.9,0-3.6-1.4-3.6-3.9c0-2.3,1.6-3.8,3.4-3.8c2.2,0,3.5,1.5,3.5,3.8v0.5h-5.4c0,1.3,1,2.2,2.2,2.2
		s1.8-0.6,2-1.5C397.1,11.6,398.2,12,398.2,12z M396.8,9.7c0-1-0.7-1.8-2-1.8c-1.2,0-1.9,0.9-2,1.8H396.8z M446.6,14.1V3.2h1.4v4.7
		c0.3-0.6,1.2-1.2,2.4-1.2c2.2,0,3.3,1.7,3.3,3.8s-1.2,3.8-3.4,3.8c-1.1,0-1.9-0.5-2.3-1.2v1H446.6z M450.2,7.9
		c-1.2,0-2.1,1-2.1,2.5c0,1.6,0.9,2.6,2.1,2.6c1.3,0,2.1-1,2.1-2.6C452.3,8.9,451.5,7.9,450.2,7.9z M460.3,8.3h-0.6
		c-1.2,0-2,0.6-2,2.2v3.6h-1.4V6.9h1.4v1.3c0.5-1.1,1.4-1.4,2.2-1.4h0.5v1.5L460.3,8.3z M464.3,9.9l1.9-0.3c0.4-0.1,0.6-0.3,0.6-0.5
		c0-0.7-0.5-1.3-1.6-1.3c-1,0-1.5,0.6-1.6,1.5L462.2,9c0.2-1.4,1.4-2.3,3-2.3c2.2,0,3,1.2,3,2.6v3.6c0,0.6,0.1,1,0.1,1.2H467
		c0-0.2-0.1-0.5-0.1-1c-0.3,0.5-1,1.2-2.3,1.2c-1.5,0-2.4-1-2.4-2.2C462.1,10.8,463,10.1,464.3,9.9L464.3,9.9z M466.8,11v-0.3
		l-2.2,0.3c-0.6,0.1-1,0.4-1,1.1c0,0.5,0.4,1,1.2,1C466,13.1,466.8,12.6,466.8,11z M472.5,14.1h-1.4V6.9h1.4v1
		c0.5-0.9,1.4-1.2,2.2-1.2c1.7,0,2.6,1.2,2.6,2.8v4.6H476V9.7c0-1-0.4-1.8-1.7-1.8c-1.1,0-1.7,0.9-1.7,2V14.1z M481.2,10.5
		c0,1.7,1,2.5,2.2,2.5c1.3,0,1.8-0.9,2-1.5l1.2,0.5c-0.3,1-1.4,2.2-3.3,2.2c-2.1,0-3.6-1.6-3.6-3.8s1.6-3.8,3.6-3.8
		c1.9,0,2.9,1.2,3.2,2.3l-1.3,0.5c-0.2-0.7-0.7-1.5-1.9-1.5C482.2,7.9,481.2,8.8,481.2,10.5L481.2,10.5z M490.5,14.1H489V3.2h1.4
		v4.5c0.5-0.8,1.4-1,2.2-1c1.7,0,2.6,1.2,2.6,2.8v4.6h-1.4V9.7c0-1-0.4-1.8-1.7-1.8c-1.1,0-1.6,0.8-1.7,1.9V14.1z"/>
	<g>
		<g>
			<path class="st10" d="M405.3,14.1V6.9h1.3v1c0.5-0.8,1.4-1.2,2.2-1.2c0.9,0,1.8,0.4,2.2,1.4c0.6-1,1.5-1.4,2.4-1.4
				c1.3,0,2.5,0.9,2.5,2.7v4.7h-1.4V9.5c0-0.9-0.5-1.6-1.5-1.6s-1.7,0.8-1.7,1.8v4.4H410V9.5c0-0.9-0.4-1.6-1.5-1.6
				c-1,0-1.7,0.7-1.7,1.8V14h-1.4V14.1z M420.8,9.9l1.9-0.3c0.4-0.1,0.6-0.3,0.6-0.5c0-0.7-0.5-1.3-1.6-1.3c-1,0-1.5,0.6-1.6,1.5
				L418.6,9c0.2-1.4,1.4-2.3,3-2.3c2.2,0,3,1.2,3,2.6v3.6c0,0.6,0.1,1,0.1,1.2h-1.4c0-0.2-0.1-0.5-0.1-1c-0.3,0.5-1,1.2-2.3,1.2
				c-1.5,0-2.4-1-2.4-2.2C418.5,10.8,419.4,10.1,420.8,9.9L420.8,9.9z M423.2,11v-0.3L421,11c-0.6,0.1-1,0.4-1,1.1
				c0,0.5,0.4,1,1.2,1C422.2,13.1,423.2,12.6,423.2,11z M428.4,3.1c0.6,0,1,0.4,1,1s-0.4,1-1,1c-0.6,0-1-0.5-1-1
				S427.8,3.1,428.4,3.1z M427.8,14.1V6.9h1.4v7.2H427.8z M433.6,14.1h-1.4V6.9h1.4v1c0.5-0.9,1.4-1.2,2.2-1.2
				c1.7,0,2.6,1.2,2.6,2.9v4.6H437V9.7c0-1-0.4-1.8-1.7-1.8c-1.1,0-1.7,0.9-1.7,2V14.1z"/>
		</g>
	</g>
</g>
</svg>
